<svg width="102" height="101" viewBox="0 0 102 101" fill="none" xmlns="http://www.w3.org/2000/svg">
<circle cx="75.9721" cy="78.5917" r="21.6127" transform="rotate(-90 75.9721 78.5917)" fill="#FDEAEF"/>
<circle cx="24.8871" cy="21.6126" r="21.6127" transform="rotate(-90 24.8871 21.6126)" fill="#FDEAEF"/>
<rect x="84.8135" y="27.9802" width="14.6581" height="14.6581" transform="rotate(-83.1683 84.8135 27.9802)" fill="#FDEAEF"/>
<rect y="87.6545" width="14.6581" height="14.6581" transform="rotate(-77.349 0 87.6545)" fill="#FDEAEF"/>
<path d="M51.7201 17.3557C32.7707 17.3557 17.3555 32.4858 17.3555 51.0846C17.3555 69.6835 32.7707 84.8135 51.7201 84.8135C70.6695 84.8135 86.0847 69.6835 86.0847 51.0846C86.0847 32.4858 70.6695 17.3557 51.7201 17.3557Z" fill="#D31140"/>
<path d="M44.2351 64.5925C43.4096 64.5925 42.7032 64.2989 42.1158 63.7115C41.5275 63.1232 41.2333 62.4163 41.2333 61.5908V42.0793C40.8081 42.0793 40.4513 41.9357 40.1632 41.6486C39.876 41.3604 39.7324 41.0037 39.7324 40.5784C39.7324 40.1532 39.876 39.7965 40.1632 39.5083C40.4513 39.2211 40.8081 39.0775 41.2333 39.0775H47.2368C47.2368 38.6523 47.3809 38.2956 47.6691 38.0074C47.9563 37.7202 48.3125 37.5767 48.7377 37.5767H54.7412C55.1665 37.5767 55.5232 37.7202 55.8114 38.0074C56.0985 38.2956 56.2421 38.6523 56.2421 39.0775H62.2456C62.6709 39.0775 63.0271 39.2211 63.3143 39.5083C63.6024 39.7965 63.7465 40.1532 63.7465 40.5784C63.7465 41.0037 63.6024 41.3604 63.3143 41.6486C63.0271 41.9357 62.6709 42.0793 62.2456 42.0793V61.5908C62.2456 62.4163 61.952 63.1232 61.3646 63.7115C60.7763 64.2989 60.0694 64.5925 59.2439 64.5925H44.2351ZM47.2368 57.0881C47.2368 57.5134 47.3809 57.8696 47.6691 58.1567C47.9563 58.4449 48.3125 58.589 48.7377 58.589C49.163 58.589 49.5197 58.4449 49.8078 58.1567C50.095 57.8696 50.2386 57.5134 50.2386 57.0881V46.582C50.2386 46.1567 50.095 45.8 49.8078 45.5118C49.5197 45.2247 49.163 45.0811 48.7377 45.0811C48.3125 45.0811 47.9563 45.2247 47.6691 45.5118C47.3809 45.8 47.2368 46.1567 47.2368 46.582V57.0881ZM53.2404 57.0881C53.2404 57.5134 53.3844 57.8696 53.6726 58.1567C53.9598 58.4449 54.316 58.589 54.7412 58.589C55.1665 58.589 55.5232 58.4449 55.8114 58.1567C56.0985 57.8696 56.2421 57.5134 56.2421 57.0881V46.582C56.2421 46.1567 56.0985 45.8 55.8114 45.5118C55.5232 45.2247 55.1665 45.0811 54.7412 45.0811C54.316 45.0811 53.9598 45.2247 53.6726 45.5118C53.3844 45.8 53.2404 46.1567 53.2404 46.582V57.0881Z" fill="white"/>
</svg>
