<svg width="140" height="140" viewBox="0 0 140 140" fill="none" xmlns="http://www.w3.org/2000/svg">
<circle cx="95.4164" cy="98.8138" r="21.6127" transform="rotate(-90 95.4164 98.8138)" fill="#F1F1F1"/>
<circle cx="44.3314" cy="41.8349" r="21.6127" transform="rotate(-90 44.3314 41.8349)" fill="#F1F1F1"/>
<rect x="104.258" y="48.2023" width="14.6581" height="14.6581" transform="rotate(-83.1683 104.258 48.2023)" fill="#F1F1F1"/>
<rect x="19.4443" y="107.877" width="14.6581" height="14.6581" transform="rotate(-77.349 19.4443 107.877)" fill="#F1F1F1"/>
<path d="M71.1644 37.5779C52.215 37.5779 36.7998 52.7079 36.7998 71.3068C36.7998 89.9057 52.215 105.036 71.1644 105.036C90.1139 105.036 105.529 89.9057 105.529 71.3068C105.529 52.7079 90.1139 37.5779 71.1644 37.5779Z" fill="#3B69D1"/>
<path d="M60.7594 82.4506C60.2591 82.6507 59.7839 82.6066 59.3336 82.3185C58.8833 82.0313 58.6582 81.6126 58.6582 81.0622V75.4715C58.6582 75.1212 58.7583 74.8086 58.9584 74.5334C59.1585 74.2582 59.4337 74.0831 59.7839 74.0081L70.6653 71.3065L59.7839 68.6049C59.4337 68.5299 59.1585 68.3548 58.9584 68.0796C58.7583 67.8045 58.6582 67.4918 58.6582 67.1416V61.5508C58.6582 61.0005 58.8833 60.5812 59.3336 60.293C59.7839 60.0059 60.2591 59.9623 60.7594 60.1625L83.873 69.9182C84.4984 70.1934 84.8111 70.6561 84.8111 71.3065C84.8111 71.9569 84.4984 72.4197 83.873 72.6948L60.7594 82.4506Z" fill="white"/>
</svg>
