<svg width="16" height="16" viewBox="0 0 16 16" fill="none" xmlns="http://www.w3.org/2000/svg">
<path d="M13.3333 2.66666H2.66659C1.93325 2.66666 1.33325 3.26666 1.33325 3.99999V12C1.33325 12.7333 1.93325 13.3333 2.66659 13.3333H13.3333C14.0666 13.3333 14.6666 12.7333 14.6666 12V3.99999C14.6666 3.26666 14.0666 2.66666 13.3333 2.66666ZM13.0666 5.49999L8.70659 8.22666C8.27325 8.49999 7.72658 8.49999 7.29325 8.22666L2.93325 5.49999C2.76659 5.39332 2.66659 5.21332 2.66659 5.01999C2.66659 4.57332 3.15325 4.30666 3.53325 4.53999L7.99992 7.33332L12.4666 4.53999C12.8466 4.30666 13.3333 4.57332 13.3333 5.01999C13.3333 5.21332 13.2333 5.39332 13.0666 5.49999Z" fill="#161616"/>
</svg>
