<svg viewBox="0 0 50 40" fill="none" xmlns="http://www.w3.org/2000/svg">
<path d="M29.8412 37.6721C29.6919 38.0625 29.539 38.4935 29.6307 38.8984C29.7426 39.3919 30.1694 39.656 30.5561 39.8659C30.6843 39.9354 30.8308 40.0059 30.9649 39.941C31.0439 39.9027 31.1039 39.8231 31.1607 39.7461C32.6336 37.7497 34.0125 35.6546 35.2881 33.475C35.1828 33.6549 32.2614 31.7475 31.5593 32.8282C31.2682 33.2761 31.1137 34.3461 30.9087 34.882C30.5529 35.812 30.1971 36.7421 29.8412 37.6721Z" fill="#DBEDF9"/>
<path d="M10.4578 20.6081C10.7039 20.5762 10.8463 20.4179 10.8341 20.2217C10.8207 20.0044 10.6654 19.8777 10.4029 19.8705C10.366 19.8694 10.3287 19.8696 10.2921 19.8736C8.34635 20.0891 6.39659 20.2553 4.44284 20.3816C3.20466 20.4616 1.96853 20.5735 0.7306 20.6599C0.471983 20.678 0.216058 20.6681 0.0187588 20.874C0.0124731 20.9329 0.00631618 20.9918 2.95639e-05 21.0507C0.126132 21.2839 0.319329 21.3618 0.582822 21.346C1.6518 21.2819 2.72206 21.2368 3.79104 21.1726C5.62689 21.0624 7.46159 20.936 9.29039 20.7358C9.6796 20.6932 10.0697 20.6584 10.4578 20.6081Z" fill="#DBEDF9"/>
<path d="M43.6794 28.5642C43.6683 28.3878 43.749 28.2135 43.6887 28.0365C43.2205 27.6292 42.7621 27.2097 42.2825 26.8164C39.8536 24.8245 37.5952 22.6622 35.5874 20.2399C34.2541 18.6312 33.0028 16.9701 32.0239 15.1168C31.1912 13.5404 30.3872 11.9532 29.9314 10.2149C29.7519 9.52978 29.5879 8.83602 29.2449 8.20653C29.1104 7.95984 28.9561 7.72406 28.6545 7.64978C28.5829 7.69519 28.5995 7.76075 28.6108 7.82771C28.784 8.84769 28.7933 9.87435 28.7643 10.9059C28.7429 11.6688 28.6532 12.4237 28.5483 13.1756C28.4196 14.0973 28.1009 14.9708 27.7759 15.8402C27.5595 16.4191 27.3604 17.0043 27.1559 17.5876C27.1233 17.6805 27.0874 17.759 26.9759 17.749C26.9754 17.7534 26.9749 17.7578 26.9743 17.762C27.0518 17.8322 27.0312 17.9084 26.9889 18.0006C26.7148 18.5974 26.3901 19.1675 26.0817 19.7464C25.264 21.2813 24.1676 22.6162 23.0744 23.9524C22.7439 24.3564 22.409 24.7602 22.0287 25.1213C21.7262 25.5142 21.364 25.8512 21.0144 26.1994C20.3286 26.8828 19.6182 27.5404 18.8417 28.1201C17.7418 28.9412 16.6162 29.7254 15.4019 30.372C15.2214 30.4679 15.025 30.5338 14.8359 30.6135C14.9895 30.7946 15.2137 30.8237 15.4197 30.8339C16.8297 30.9049 18.2321 31.0537 19.6329 31.221C19.8454 31.2464 20.0559 31.2914 20.2687 31.3073C21.8068 31.4224 23.3503 31.4629 24.8846 31.6356C25.963 31.7569 27.0378 31.9029 28.1035 32.1101C28.3788 32.1651 28.8772 32.2443 29.3361 32.3187C29.344 32.3192 29.351 32.3181 29.3592 32.3188C29.7016 32.3554 30.0437 32.4064 30.3647 32.5295C30.4055 32.5247 30.4511 32.5315 30.4987 32.5413C31.3082 32.7075 31.4653 32.8405 32.2532 33.0903C33.1815 33.3845 34.0942 33.722 35.0091 34.0541C35.0365 34.064 35.0606 34.0826 35.0864 34.0971C35.5758 34.256 36.0545 34.4426 36.5236 34.6541C36.5448 34.6602 36.5667 34.6649 36.5871 34.6729C37.3945 34.9951 38.1572 35.4104 38.9315 35.8017C39.1584 35.8285 39.3326 35.7392 39.5134 35.5999C39.9333 35.2763 40.3474 34.9484 40.7239 34.574C41.4555 33.8467 42.087 33.0464 42.5879 32.1395C42.9684 31.4507 43.26 30.7275 43.496 29.9821C43.6406 29.5252 43.7095 29.0485 43.6794 28.5642Z" fill="#274996"/>
<path d="M15.4021 30.3721C16.6164 29.7256 17.7419 28.9414 18.8417 28.1202C19.6182 27.5405 20.3286 26.8828 21.0144 26.1995C21.364 25.8512 21.7263 25.5142 22.0288 25.1214C21.5995 24.362 21.1172 23.6372 20.5699 22.9588C20.2133 22.5168 19.8254 22.1 19.4535 21.6701C19.391 21.5979 19.3383 21.5173 19.2811 21.4406C18.9159 21.1738 18.814 20.754 19.034 20.3717C19.6689 19.2689 20.3671 18.2098 21.2452 17.2816C21.6151 16.8908 21.9869 16.4988 22.4081 16.1622C22.6707 15.9525 22.9724 15.8384 23.3126 15.9806C23.4305 16.0298 23.505 16.1381 23.5978 16.2212C24.6474 16.8857 25.7769 17.3743 26.9587 17.7477C26.965 17.7487 26.9701 17.7483 26.976 17.749C27.0875 17.7589 27.1234 17.6805 27.156 17.5876C27.3603 17.0043 27.5597 16.4189 27.776 15.8401C28.1009 14.9709 28.4198 14.0974 28.5483 13.1755C28.6533 12.4237 28.7428 11.6687 28.7642 10.9058C28.7932 9.87429 28.7839 8.84764 28.6107 7.82765C28.5993 7.76069 28.5827 7.69514 28.6543 7.64973C28.5918 7.5752 28.5167 7.64614 28.4462 7.63164C27.7857 7.49502 27.1929 7.72541 26.61 7.98762C25.2357 8.60582 23.987 9.43082 22.8028 10.353C22.0046 10.9746 21.246 11.6467 20.549 12.3802C18.866 14.1514 17.3701 16.0736 16.0831 18.1491C15.4268 19.2076 14.8811 20.3286 14.4736 21.5158C14.1031 22.5949 13.8977 23.7065 13.7162 24.8252C13.6704 25.1072 13.7082 25.4001 13.661 25.6854C13.5783 26.1853 13.6542 26.6855 13.665 27.185C13.6791 27.8423 13.7928 28.4886 13.945 29.1275C14.0307 29.4872 14.1508 29.8293 14.3449 30.1532C14.4718 30.3649 14.6842 30.449 14.8357 30.6136C15.0251 30.5338 15.2216 30.4681 15.4021 30.3721Z" fill="#DBEDF9"/>
<path d="M49.34 32.3311C49.2774 32.0099 49.2304 31.6543 48.9449 31.4392C48.3022 30.9546 47.6643 30.4623 46.9819 30.0327C46.1567 29.513 45.3363 28.9851 44.5031 28.4785C44.2404 28.3188 43.9804 28.1461 43.6888 28.0362C43.7491 28.2132 43.6684 28.3876 43.6794 28.5639C43.7096 29.0482 43.6407 29.5249 43.4959 29.9821C43.2597 30.7275 42.9682 31.4507 42.5877 32.1395C42.0868 33.0464 41.4554 33.8467 40.7237 34.574C40.3472 34.9484 39.9331 35.2763 39.5132 35.5999C39.3326 35.7392 39.1582 35.8285 38.9313 35.8017C39.0246 35.9494 39.163 36.0451 39.3099 36.1313C39.6154 36.3109 39.9268 36.4813 40.2248 36.6725C41.4941 37.4867 42.8403 38.1725 44.1047 38.9931C44.6773 39.3648 45.1979 39.4293 45.8035 39.0439C46.2126 38.7837 46.6556 38.5697 47.032 38.2605C47.767 37.6567 48.2423 36.8558 48.6635 36.0207C48.9642 35.4242 49.1518 34.7935 49.2629 34.1316C49.3638 33.5308 49.4575 32.9338 49.34 32.3311Z" fill="#DBEDF9"/>
<path d="M13.1193 1.38261C14.1059 3.26043 15.1195 5.12297 16.2331 6.92946C16.4542 7.28801 16.6626 7.65439 16.8906 8.00833C17.0149 8.20139 17.2459 8.24783 17.4127 8.142C17.5724 8.04065 17.6188 7.83245 17.5206 7.62989C17.4722 7.53034 17.4147 7.43516 17.3578 7.3401C16.8715 6.52871 16.3736 5.72411 15.8997 4.90566C15.0039 3.3583 14.1765 1.7717 13.2273 0.254873C13.1509 0.132747 13.0751 0.0163946 12.9139 0.00228338C12.6489 -0.0276067 12.4691 0.241149 12.6036 0.504001C12.7581 0.805852 12.9615 1.0823 13.1193 1.38261Z" fill="#DBEDF9"/>
<path d="M13.3224 12.7192C13.0654 12.5455 12.8072 12.3722 12.5391 12.2167C11.0493 11.3524 9.4807 10.6408 7.9485 9.85883C7.90976 9.83908 7.86498 9.83125 7.85062 9.82676C7.67089 9.79931 7.55557 9.86461 7.4877 9.98968C7.41369 10.1262 7.43408 10.2706 7.55172 10.3748C7.64446 10.4569 7.75453 10.5226 7.86434 10.5816C9.55524 11.4896 11.3015 12.296 12.9159 13.3444C13.1468 13.4944 13.3672 13.4604 13.4883 13.2834C13.6188 13.0929 13.5619 12.8811 13.3224 12.7192Z" fill="#DBEDF9"/>
<path d="M11.1117 26.0535C11.0341 26.0734 10.9593 26.1094 10.8873 26.1462C10.0455 26.5778 9.21282 27.0256 8.41939 27.5427C8.30214 27.6192 8.17155 27.6768 8.07367 27.7811C7.97951 27.8814 7.94834 27.9974 7.99824 28.1284C8.04507 28.2513 8.14282 28.3101 8.26776 28.331C8.35833 28.341 8.45185 28.316 8.61798 28.2126C9.47862 27.6768 10.3767 27.2105 11.2882 26.7688C11.3409 26.7433 11.3955 26.7148 11.4371 26.6749C11.5673 26.5501 11.6148 26.4002 11.5228 26.2344C11.4342 26.0743 11.2922 26.0073 11.1117 26.0535Z" fill="#DBEDF9"/>
<path d="M23.3262 7.28512C23.349 7.48113 23.4617 7.59659 23.6608 7.59916C23.8431 7.60146 23.9579 7.46215 23.9856 7.13965C23.9446 6.69758 23.9018 6.15405 23.8401 5.61256C23.8133 5.37742 23.6472 5.25414 23.45 5.27928C23.2599 5.30352 23.1274 5.47338 23.1499 5.703C23.2016 6.23102 23.2651 6.758 23.3262 7.28512Z" fill="#DBEDF9"/>
<path d="M26.9589 17.7478C25.7771 17.3743 24.6476 16.8858 23.598 16.2213C23.583 16.237 23.5534 16.2542 23.5549 16.268C23.6233 16.8847 23.2617 17.3325 22.9354 17.78C22.3027 18.6482 21.5611 19.4267 20.858 20.2371C20.5498 20.5924 20.2659 20.9669 19.8924 21.262C19.7075 21.4081 19.5171 21.4903 19.2813 21.4404C19.3385 21.5171 19.3912 21.5977 19.4537 21.6699C19.8257 22.0998 20.2135 22.5166 20.5702 22.9586C21.1174 23.637 21.5998 24.3619 22.029 25.1212C22.4092 24.76 22.7443 24.3562 23.0747 23.9523C24.168 22.6161 25.2644 21.2812 26.0821 19.7463C26.3905 19.1673 26.7151 18.5973 26.9893 18.0005C27.0316 17.9084 27.0523 17.8322 26.9748 17.7619C26.9694 17.7572 26.965 17.7525 26.9589 17.7478Z" fill="#DBEDF9"/>
<path d="M19.8924 21.2621C20.2658 20.9672 20.5497 20.5926 20.8579 20.2373C21.5611 19.4269 22.3027 18.6482 22.9353 17.7801C23.2614 17.3326 23.6232 16.8847 23.5548 16.2682C23.5533 16.2543 23.5828 16.2371 23.5979 16.2215C23.505 16.1384 23.4305 16.0301 23.3128 15.9808C22.9725 15.8386 22.6708 15.9527 22.4082 16.1625C21.9871 16.499 21.6152 16.8909 21.2453 17.2819C20.3673 18.21 19.6691 19.2691 19.0341 20.372C18.814 20.7543 18.9159 21.1739 19.2812 21.4408C19.517 21.4904 19.7072 21.4083 19.8924 21.2621Z" fill="#274996"/>
</svg>
