<svg viewBox="0 0 127 125" fill="none" xmlns="http://www.w3.org/2000/svg">
<path d="M63.194 0C28.3474 0 0 27.823 0 62.025C0 96.2269 28.3474 124.05 63.194 124.05C98.0406 124.05 126.388 96.2269 126.388 62.025C126.388 27.823 98.0406 0 63.194 0Z" fill="white"/>
<path d="M67.4113 82.8346C67.2152 83.3474 67.0143 83.9135 67.1348 84.4453C67.2818 85.0935 67.8424 85.4405 68.3504 85.7162C68.5187 85.8075 68.7112 85.9 68.8872 85.8147C68.991 85.7645 69.0699 85.6599 69.1445 85.5588C71.0791 82.9365 72.8903 80.1846 74.5659 77.3215C74.4276 77.5579 70.5903 75.0525 69.6681 76.4719C69.2857 77.0604 69.0827 78.4658 68.8134 79.1697C68.3462 80.3913 67.8788 81.613 67.4113 82.8346Z" fill="#3B69D1"/>
<path d="M41.9507 60.4206C42.2741 60.3787 42.4611 60.1708 42.4451 59.9131C42.4274 59.6277 42.2235 59.4612 41.8786 59.4518C41.8302 59.4504 41.7812 59.4506 41.7332 59.4558C39.1773 59.7389 36.6163 59.9573 34.05 60.1231C32.4236 60.2282 30.7999 60.3752 29.1739 60.4887C28.8342 60.5125 28.498 60.4995 28.2389 60.77C28.2306 60.8473 28.2225 60.9246 28.2143 61.002C28.3799 61.3083 28.6337 61.4106 28.9798 61.3899C30.3839 61.3056 31.7897 61.2465 33.1938 61.1621C35.6053 61.0173 38.0152 60.8514 40.4173 60.5883C40.9286 60.5324 41.441 60.4867 41.9507 60.4206Z" fill="#3B69D1"/>
<path d="M85.5879 70.8711C85.5734 70.6394 85.6794 70.4104 85.6002 70.1779C84.9852 69.6429 84.3831 69.0919 83.7531 68.5753C80.5627 65.959 77.5962 63.1187 74.959 59.937C73.2076 57.824 71.564 55.642 70.2782 53.2077C69.1844 51.1371 68.1284 49.0523 67.5297 46.769C67.2938 45.8691 67.0785 44.9578 66.6279 44.131C66.4513 43.8069 66.2486 43.4972 65.8525 43.3997C65.7584 43.4593 65.7802 43.5454 65.795 43.6334C66.0225 44.9731 66.0348 46.3217 65.9967 47.6766C65.9686 48.6787 65.8508 49.6703 65.7129 50.6579C65.5439 51.8686 65.1252 53.0159 64.6984 54.1579C64.4141 54.9183 64.1526 55.687 63.884 56.4532C63.8412 56.5752 63.794 56.6783 63.6476 56.6652C63.6469 56.6709 63.6463 56.6767 63.6454 56.6822C63.7472 56.7744 63.7202 56.8745 63.6646 56.9956C63.3045 57.7795 62.8781 58.5283 62.473 59.2888C61.399 61.3049 59.9588 63.0583 58.5228 64.8135C58.0887 65.3441 57.6488 65.8745 57.1493 66.3489C56.752 66.8648 56.2762 67.3075 55.817 67.765C54.9162 68.6626 53.983 69.5263 52.9631 70.2878C51.5183 71.3664 50.0399 72.3964 48.4449 73.2457C48.2078 73.3717 47.9498 73.4582 47.7014 73.563C47.9031 73.8007 48.1977 73.839 48.4683 73.8525C50.3203 73.9456 52.1624 74.1411 54.0024 74.3608C54.2814 74.3942 54.5579 74.4533 54.8375 74.4742C56.8578 74.6254 58.8852 74.6786 60.9005 74.9054C62.3171 75.0648 63.7288 75.2566 65.1287 75.5287C65.4903 75.601 66.145 75.705 66.7477 75.8027C66.7582 75.8034 66.7673 75.8019 66.778 75.8029C67.2278 75.8509 67.6772 75.918 68.0988 76.0795C68.1523 76.0733 68.2123 76.0823 68.2748 76.0951C69.3381 76.3134 69.5445 76.4882 70.5794 76.8162C71.7987 77.2026 72.9976 77.646 74.1994 78.0822C74.2353 78.0952 74.2669 78.1196 74.3008 78.1387C74.9436 78.3474 75.5725 78.5924 76.1887 78.8703C76.2165 78.8784 76.2453 78.8844 76.2721 78.8951C77.3327 79.3182 78.3344 79.8638 79.3515 80.3777C79.6496 80.4129 79.8784 80.2957 80.1158 80.1127C80.6673 79.6875 81.2112 79.2568 81.7058 78.7651C82.6668 77.8097 83.4963 76.7586 84.1543 75.5673C84.6541 74.6626 85.0371 73.7126 85.3471 72.7336C85.537 72.1334 85.6275 71.5072 85.5879 70.8711Z" fill="#274996"/>
<path d="M48.4451 73.2457C50.0401 72.3966 51.5186 71.3666 52.9631 70.2878C53.9831 69.5263 54.9162 68.6624 55.8171 67.765C56.2762 67.3075 56.7521 66.8649 57.1494 66.3489C56.5856 65.3514 55.952 64.3993 55.2332 63.5083C54.7648 62.9276 54.2552 62.3802 53.7667 61.8155C53.6847 61.7206 53.6154 61.6148 53.5403 61.5141C53.0605 61.1636 52.9267 60.6122 53.2157 60.1101C54.0496 58.6615 54.9668 57.2703 56.1202 56.0512C56.606 55.5378 57.0945 55.023 57.6477 54.5808C57.9926 54.3053 58.3889 54.1555 58.8358 54.3422C58.9906 54.4069 59.0885 54.5492 59.2103 54.6584C60.589 55.5312 62.0727 56.1729 63.6249 56.6634C63.6332 56.6647 63.6399 56.6642 63.6477 56.6651C63.7941 56.678 63.8413 56.5751 63.8841 56.4531C64.1525 55.6869 64.4144 54.918 64.6984 54.1577C65.1253 53.016 65.5442 51.8686 65.713 50.6578C65.8508 49.6702 65.9684 48.6785 65.9966 47.6765C66.0347 46.3215 66.0224 44.973 65.7949 43.6332C65.7799 43.5453 65.7582 43.4592 65.8522 43.3995C65.7701 43.3016 65.6714 43.3948 65.5789 43.3758C64.7113 43.1963 63.9326 43.4989 63.1669 43.8434C61.3618 44.6554 59.7216 45.739 58.1661 46.9504C57.1177 47.7668 56.1212 48.6496 55.2057 49.6131C52.995 51.9396 51.0301 54.4644 49.3397 57.1906C48.4776 58.5809 47.7608 60.0535 47.2255 61.6128C46.7389 63.0302 46.4691 64.4903 46.2307 65.9598C46.1705 66.3302 46.2202 66.7149 46.1582 67.0896C46.0495 67.7463 46.1493 68.4033 46.1634 69.0594C46.182 69.9228 46.3312 70.7718 46.5313 71.6109C46.6438 72.0834 46.8015 72.5328 47.0565 72.9582C47.2231 73.2363 47.5022 73.3468 47.7012 73.563C47.9499 73.4582 48.208 73.3719 48.4451 73.2457Z" fill="#DBEDF9"/>
<path d="M93.0234 75.8191C92.9412 75.3971 92.8794 74.9301 92.5045 74.6475C91.6603 74.011 90.8223 73.3643 89.926 72.8C88.8421 72.1174 87.7645 71.424 86.6701 70.7586C86.325 70.5488 85.9834 70.322 85.6004 70.1776C85.6796 70.4101 85.5736 70.6391 85.5881 70.8708C85.6277 71.5069 85.5372 72.1331 85.347 72.7336C85.0368 73.7126 84.654 74.6626 84.1542 75.5673C83.4962 76.7586 82.6668 77.8098 81.7057 78.7652C81.2111 79.2569 80.6672 79.6876 80.1157 80.1127C79.8784 80.2957 79.6494 80.413 79.3514 80.3777C79.4739 80.5717 79.6557 80.6974 79.8486 80.8106C80.25 81.0465 80.6589 81.2705 81.0504 81.5215C82.7177 82.591 84.486 83.4918 86.1467 84.5698C86.8989 85.0579 87.5827 85.1427 88.3782 84.6365C88.9155 84.2946 89.4974 84.0135 89.9918 83.6074C90.9573 82.8143 91.5816 81.7623 92.1348 80.6654C92.5297 79.8818 92.7762 79.0535 92.9222 78.184C93.0546 77.3949 93.1778 76.6107 93.0234 75.8191Z" fill="#DBEDF9"/>
<path d="M45.4468 35.1677C46.7428 37.6342 48.0741 40.0807 49.5369 42.4535C49.8272 42.9245 50.101 43.4057 50.4004 43.8706C50.5637 44.1242 50.8672 44.1852 51.0863 44.0462C51.296 43.9131 51.357 43.6396 51.228 43.3736C51.1644 43.2428 51.0889 43.1178 51.0141 42.9929C50.3753 41.9271 49.7214 40.8703 49.0989 39.7952C47.9223 37.7628 46.8355 35.6787 45.5887 33.6863C45.4883 33.5259 45.3887 33.3731 45.1771 33.3546C44.8289 33.3153 44.5927 33.6683 44.7695 34.0136C44.9723 34.4101 45.2396 34.7732 45.4468 35.1677Z" fill="#3B69D1"/>
<path d="M45.7135 50.0585C45.376 49.8303 45.0368 49.6027 44.6846 49.3985C42.7278 48.2633 40.6674 47.3286 38.6548 46.3014C38.6039 46.2754 38.5451 46.2651 38.5262 46.2592C38.2902 46.2232 38.1387 46.309 38.0495 46.4733C37.9523 46.6525 37.9791 46.8423 38.1336 46.9791C38.2554 47.0869 38.4 47.1732 38.5443 47.2507C40.7653 48.4434 43.0591 49.5026 45.1795 50.8798C45.4828 51.0767 45.7723 51.0321 45.9314 50.7996C46.1029 50.5493 46.0281 50.2711 45.7135 50.0585Z" fill="#3B69D1"/>
<path d="M42.8096 67.5732C42.7076 67.5994 42.6094 67.6467 42.5148 67.6951C41.4091 68.2619 40.3154 68.8502 39.2732 69.5294C39.1192 69.6298 38.9477 69.7055 38.8191 69.8425C38.6954 69.9742 38.6545 70.1266 38.72 70.2986C38.7815 70.46 38.9099 70.5374 39.074 70.5648C39.193 70.578 39.3158 70.5451 39.534 70.4093C40.6645 69.7055 41.8442 69.093 43.0414 68.5128C43.1107 68.4793 43.1824 68.4419 43.237 68.3895C43.4081 68.2255 43.4704 68.0287 43.3496 67.8108C43.2332 67.6005 43.0466 67.5126 42.8096 67.5732Z" fill="#3B69D1"/>
<path d="M58.8539 42.9207C58.8837 43.1781 59.0318 43.3298 59.2933 43.3332C59.5328 43.3362 59.6836 43.1532 59.72 42.7296C59.6661 42.1489 59.6099 41.435 59.5289 40.7237C59.4937 40.4149 59.2755 40.2529 59.0165 40.286C58.7668 40.3178 58.5927 40.5409 58.6222 40.8425C58.6901 41.5361 58.7735 42.2283 58.8539 42.9207Z" fill="#3B69D1"/>
<path d="M63.6254 56.6636C62.0731 56.1731 60.5895 55.5314 59.2108 54.6586C59.1911 54.6791 59.1522 54.7017 59.1542 54.7199C59.244 55.5299 58.769 56.1181 58.3405 56.7059C57.5094 57.8463 56.5353 58.8689 55.6118 59.9334C55.2069 60.4001 54.834 60.892 54.3434 61.2795C54.1005 61.4715 53.8504 61.5795 53.5407 61.5139C53.6159 61.6147 53.6851 61.7205 53.7672 61.8154C54.2558 62.38 54.7652 62.9275 55.2336 63.5082C55.9525 64.3992 56.586 65.3514 57.1498 66.3488C57.6493 65.8743 58.0894 65.3438 58.5235 64.8134C59.9594 63.0583 61.3996 61.3048 62.4737 59.2887C62.8787 58.5282 63.3052 57.7794 63.6653 56.9955C63.7209 56.8745 63.748 56.7745 63.6463 56.6821C63.6392 56.676 63.6335 56.6698 63.6254 56.6636Z" fill="#3B69D1"/>
<path d="M54.3434 61.2798C54.8339 60.8924 55.2068 60.4004 55.6117 59.9337C56.5352 58.8692 57.5093 57.8464 58.3404 56.7062C58.7687 56.1183 59.2439 55.53 59.1541 54.7202C59.1521 54.702 59.1908 54.6794 59.2107 54.6589C59.0887 54.5497 58.9908 54.4075 58.8361 54.3427C58.3892 54.1559 57.9929 54.3058 57.648 54.5813C57.0948 55.0233 56.6063 55.5381 56.1205 56.0517C54.9671 57.2708 54.0502 58.662 53.2161 60.1106C52.9269 60.6127 53.0607 61.1639 53.5406 61.5146C53.8503 61.5796 54.1002 61.4718 54.3434 61.2798Z" fill="#274996"/>
</svg>
