<svg width="310" height="84" viewBox="0 0 310 84" fill="none" xmlns="http://www.w3.org/2000/svg">
<g filter="url(#filter0_d_5451_3265)">
<rect x="12" y="8" width="60" height="60" rx="8" fill="white" shape-rendering="crispEdges"/>
<rect x="12.5" y="8.5" width="59" height="59" rx="7.5" stroke="#F1F1F1" shape-rendering="crispEdges"/>
<path d="M50.9808 43.8921C50.7 43.9386 50.5245 44.0898 50.4308 44.3923L51.4606 44.2062C51.4489 44.0084 51.3084 43.8339 50.9808 43.8921ZM50.9808 43.8921C50.7 43.9386 50.5245 44.0898 50.4308 44.3923L51.4606 44.2062C51.4489 44.0084 51.3084 43.8339 50.9808 43.8921ZM50.9808 43.8921C50.7 43.9386 50.5245 44.0898 50.4308 44.3923L51.4606 44.2062C51.4489 44.0084 51.3084 43.8339 50.9808 43.8921ZM50.9808 43.8921C50.7 43.9386 50.5245 44.0898 50.4308 44.3923L51.4606 44.2062C51.4489 44.0084 51.3084 43.8339 50.9808 43.8921ZM64.6714 38.064L60.1781 38.8667V25.2561L58.1889 24.5L17.2106 31.5379L17 31.5728V48.4754H17.0117L17 48.4871L18.9658 49.6853L18.2286 51.3837L18.685 51.5L19.4456 49.7667L19.9253 49.6736L19.2701 51.1859L19.7264 51.3022L20.487 49.5689L20.9668 49.4759L20.2998 50.9882L20.7561 51.1045L21.505 49.3828L21.9848 49.2897L21.3295 50.7904L21.7859 50.9067L22.5348 49.185L23.0145 49.092L22.3592 50.581L22.8156 50.6973L23.5645 48.9873L24.0442 48.8942L23.4007 50.3716L23.857 50.4879L24.6059 48.7779L25.0857 48.6848L24.4421 50.1622L24.8984 50.2785L25.6473 48.5801L26.1271 48.4871L25.4835 49.9877L25.9399 50.104L26.677 48.4056L27.1568 48.3126L26.5132 49.7783L26.9696 49.8947L27.7068 48.2079L28.1865 48.1148L27.5546 49.5689L28.011 49.6853L28.7482 48.0101L29.2279 47.9171L28.5961 49.3712L29.0524 49.4875L29.7896 47.8124L30.2694 47.7193L29.6375 49.1618L30.0938 49.2781L30.8193 47.6146L31.2991 47.5215L30.6672 48.964L31.1236 49.0804L31.8491 47.4168L32.3288 47.3238L31.6969 48.7546L32.1533 48.871L32.8788 47.2191L33.3585 47.126L32.7384 48.5569L33.1947 48.6732L33.9202 47.0213L34.4 46.9283L33.7798 48.3475L34.2361 48.4638L34.9499 46.8236L35.4297 46.7305L34.8095 48.1497L35.2659 48.266L35.9796 46.6258L36.4594 46.5327L35.8392 47.9403L36.2956 48.0567L37.0094 46.428L37.5827 46.3234L36.9158 47.824L37.3721 47.952L38.1444 46.2187L38.7295 46.114L38.0508 47.6611L38.5071 47.7775L39.2794 46.0093L39.7592 45.9162L39.0805 47.4517L39.5369 47.5681L40.3092 45.8115L40.7889 45.7184L40.1219 47.254L40.5783 47.3703L41.3506 45.6137L41.8303 45.5207L41.1634 47.0446L41.6197 47.1609L42.3803 45.416L42.8601 45.3229L42.1931 46.8468L42.6494 46.9632L43.41 45.2182L43.8898 45.1252L43.2228 46.6374L43.6791 46.7538L44.4397 45.0205L44.9195 44.9274L44.2642 46.428L44.7206 46.5444L45.2237 45.3927V50.0924L45.212 50.1157L47.5874 51.3139L66.7894 47.9869L67 47.952V39.0411L64.6714 38.064ZM61.5121 41.1932C62.3546 41.042 62.9045 41.4957 62.9045 42.2984C62.9045 42.4961 62.8811 42.6939 62.846 42.7986L60.927 43.1476C61.0089 43.4733 61.2546 43.5896 61.6525 43.5198C61.9333 43.4733 62.1556 43.3104 62.296 43.1243L62.9513 43.5198C62.6705 43.9386 62.2024 44.2527 61.6291 44.3574C60.5408 44.5551 59.9558 43.927 59.9558 43.0661C59.9675 42.2169 60.5057 41.3794 61.5121 41.1932ZM58.2474 41.7865C58.8792 41.6702 59.3941 42.0192 59.3941 42.9149V44.6482L58.4463 44.8227V43.1243C58.4463 42.8218 58.2825 42.6474 57.9899 42.7055C57.6623 42.7637 57.5102 43.0545 57.4517 43.1592V44.9972L56.5156 45.1717V42.2169L57.4517 42.0424V42.2053C57.6623 42.0192 57.908 41.8563 58.2474 41.7865ZM45.1886 41.5306V42.7869L17.5617 47.8705L17.5149 47.8822V31.9916L57.6974 25.0816V39.3087L45.3407 41.519L45.1886 41.5306ZM54.3742 44.8227C54.7136 44.7645 54.8657 44.5086 54.8657 44.2062V42.531L55.8135 42.3565V43.9735C55.8135 44.8576 55.2869 45.5207 54.3742 45.6952C53.4498 45.8697 52.9349 45.3927 52.9349 44.5086V42.8916L53.8828 42.7171V44.3923C53.8711 44.6947 54.0232 44.8809 54.3742 44.8227ZM51.1212 45.4509C51.4021 45.4044 51.6244 45.2415 51.7648 45.0554L52.4201 45.4509C52.1392 45.8697 51.6712 46.1838 51.0978 46.2885C50.0096 46.4862 49.4245 45.858 49.4245 44.9972C49.4245 44.1364 49.9628 43.2988 50.9691 43.1243C51.8116 42.9731 52.3733 43.4268 52.3733 44.2294C52.3733 44.4272 52.3382 44.6249 52.3148 44.7296L50.3957 45.0786C50.4777 45.4044 50.7351 45.5323 51.1212 45.4509ZM48.7224 42.5078V46.2303C48.7224 47.1609 48.3012 47.7542 47.3417 47.9287C47.1896 47.952 47.0608 47.9752 46.9789 47.9752V47.0562C47.0374 47.0562 47.096 47.0562 47.1779 47.033C47.5289 46.9632 47.6693 46.777 47.6693 46.4746V42.6939L48.7224 42.5078ZM66.4968 47.5332L47.6342 50.9067L45.9843 50.0808L64.5193 46.7654L64.6597 46.7421V38.5991L64.6831 38.5875L66.4968 39.3436V47.5332ZM61.5121 41.961C61.2312 42.0075 61.0557 42.1588 60.9621 42.4612L61.9918 42.2751C61.9801 42.089 61.828 41.9028 61.5121 41.961ZM50.9808 43.8921C50.7 43.9386 50.5245 44.0898 50.4308 44.3923L51.4606 44.2062C51.4489 44.0084 51.3084 43.8339 50.9808 43.8921ZM50.9808 43.8921C50.7 43.9386 50.5245 44.0898 50.4308 44.3923L51.4606 44.2062C51.4489 44.0084 51.3084 43.8339 50.9808 43.8921ZM50.9808 43.8921C50.7 43.9386 50.5245 44.0898 50.4308 44.3923L51.4606 44.2062C51.4489 44.0084 51.3084 43.8339 50.9808 43.8921Z" fill="#3A61AA"/>
<path d="M20.4988 41.8796C20.803 41.8214 21.037 41.8563 21.2242 41.961V40.5651L22.0667 40.4022V44.3225L21.2242 44.4854V44.369C21.037 44.5435 20.803 44.6715 20.4988 44.7297C19.6563 44.8925 19.1648 44.3341 19.1648 43.5664C19.1648 42.787 19.6563 42.0425 20.4988 41.8796ZM20.6275 43.9154C20.8966 43.8688 21.0838 43.7176 21.2359 43.4733V42.8335C21.0838 42.659 20.8849 42.5776 20.6275 42.6241C20.2647 42.6939 20.0424 42.9964 20.0424 43.3802C20.0424 43.7641 20.253 43.9852 20.6275 43.9154Z" fill="#3A61AA"/>
<path d="M22.4529 42.1588L22.956 40.4836L23.8922 40.2975L23.2252 42.0075L22.4529 42.1588Z" fill="#3A61AA"/>
<path d="M24.3835 40.2044L26.6536 39.7623V40.5534L25.3197 40.8093V41.4258L26.443 41.2048V41.9958L25.3197 42.2169V42.8916L26.6536 42.6357V43.4267L24.3835 43.8687V40.2044Z" fill="#3A61AA"/>
<path d="M27.3674 40.6465L28.1982 40.4836V40.6349C28.3738 40.4604 28.5961 40.3091 28.9003 40.251C29.462 40.1463 29.93 40.4487 29.93 41.2398V42.787L29.0875 42.9498V41.4375C29.0875 41.17 28.9471 41.0188 28.678 41.0653C28.3855 41.1234 28.2567 41.3794 28.1982 41.4724V43.1127L27.3674 43.2755V40.6465V40.6465Z" fill="#3A61AA"/>
<path d="M30.7024 42.4612C30.6087 42.3681 30.5502 42.2402 30.5502 42.1122C30.5502 41.9028 30.6205 41.7167 30.8194 41.5306C30.5853 41.4026 30.4683 41.17 30.4683 40.8791C30.4683 40.3557 30.8662 39.8787 31.5566 39.7391C31.7672 39.6926 31.9661 39.6926 32.1182 39.7391L33.066 39.553V40.251L32.6565 40.3324C32.6565 40.3673 32.6565 40.4138 32.6565 40.4603C32.6565 40.9838 32.2703 41.4608 31.5566 41.6004C31.5098 41.612 31.4512 41.6236 31.4044 41.6236C31.3693 41.6585 31.3576 41.7051 31.3576 41.74C31.3576 41.833 31.4161 41.8563 31.4981 41.833L32.1065 41.7167C32.7501 41.5887 33.1362 41.8912 33.1362 42.3914C33.1362 43.0196 32.6214 43.578 31.7321 43.7525C30.8428 43.927 30.3513 43.7408 30.3513 43.1592C30.3513 42.8916 30.48 42.659 30.7024 42.4612ZM31.7321 43.0894C32.1533 43.008 32.3289 42.8218 32.3289 42.6241C32.3289 42.4728 32.2235 42.3798 32.0129 42.4263L31.2874 42.5659C31.1821 42.6473 31.1353 42.752 31.1353 42.8684C31.1353 43.0778 31.3108 43.1708 31.7321 43.0894ZM31.9193 40.5883C31.9193 40.3789 31.7672 40.2975 31.5683 40.3324C31.3576 40.3673 31.2172 40.5069 31.2172 40.7163C31.2172 40.9257 31.3576 41.0071 31.5683 40.9722C31.7789 40.9373 31.9193 40.7977 31.9193 40.5883Z" fill="#3A61AA"/>
<path d="M33.3235 41.4026C33.3235 40.9955 33.6277 40.6232 34.2128 40.4138L34.95 40.1463C34.9383 39.9485 34.7745 39.8322 34.5404 39.8787C34.3181 39.9253 34.1309 40.0532 34.0373 40.251L33.4288 39.9136C33.6745 39.5297 34.0724 39.2506 34.5638 39.1575C35.4063 38.9946 35.7925 39.425 35.7925 39.9951V41.6586L34.95 41.8214V41.6237C34.7979 41.8214 34.517 42.0076 34.2362 42.0657C33.6979 42.1588 33.3235 41.9145 33.3235 41.4026ZM34.4117 41.3561C34.6691 41.3096 34.833 41.1467 34.9383 40.9606V40.7279L34.4234 40.9141C34.2011 40.9955 34.1309 41.0769 34.1309 41.2049C34.1426 41.3328 34.2479 41.391 34.4117 41.3561Z" fill="#3A61AA"/>
<path d="M36.5647 41.3212C36.4711 41.2281 36.4125 41.1002 36.4125 40.9722C36.4125 40.7628 36.4828 40.5767 36.6817 40.3906C36.4477 40.2626 36.3306 40.0299 36.3306 39.7391C36.3306 39.2156 36.7285 38.7387 37.4189 38.5991C37.6295 38.5526 37.8284 38.5526 37.9805 38.5991L38.9283 38.413V39.1109L38.5188 39.1924C38.5188 39.2273 38.5188 39.2738 38.5188 39.3203C38.5188 39.8438 38.1327 40.3208 37.4189 40.4604C37.3721 40.472 37.3136 40.4836 37.2667 40.4836C37.2316 40.5185 37.2199 40.5651 37.2199 40.6C37.2199 40.693 37.2784 40.7163 37.3604 40.693L37.9688 40.5767C38.6124 40.4487 38.9986 40.7512 38.9986 41.2514C38.9986 41.8796 38.4837 42.438 37.5944 42.6124C36.7051 42.7869 36.2136 42.6008 36.2136 42.0192C36.2136 41.7632 36.3423 41.5306 36.5647 41.3212ZM37.5827 41.9494C38.0039 41.8679 38.1795 41.6818 38.1795 41.4841C38.1795 41.3328 38.0741 41.2398 37.8635 41.2863L37.138 41.4259C37.0327 41.5073 36.9859 41.612 36.9859 41.7283C36.9976 41.9377 37.1614 42.0308 37.5827 41.9494ZM37.7816 39.4483C37.7816 39.2389 37.6295 39.1575 37.4306 39.1924C37.2199 39.2273 37.0795 39.3669 37.0795 39.5763C37.0795 39.7856 37.2199 39.8671 37.4306 39.8322C37.6295 39.7973 37.7816 39.6693 37.7816 39.4483Z" fill="#3A61AA"/>
<path d="M40.5784 40.8209C39.6071 41.007 39.0923 40.4603 39.0923 39.6925C39.0923 38.9248 39.572 38.1802 40.473 38.0058C41.2219 37.8545 41.7134 38.2617 41.7134 38.9713C41.7134 39.1458 41.69 39.3203 41.6549 39.425L39.9465 39.7623C40.0167 40.0531 40.239 40.1578 40.5901 40.088C40.8358 40.0415 41.0464 39.9019 41.1634 39.7274L41.7485 40.0764C41.5028 40.4487 41.0932 40.7279 40.5784 40.8209ZM39.9816 39.1341L40.8943 38.9597C40.8826 38.7852 40.7539 38.6339 40.473 38.6921C40.2273 38.7386 40.0635 38.8666 39.9816 39.1341Z" fill="#3A61AA"/>
<path d="M42.2866 37.7615L43.1174 37.5986V37.7382C43.2695 37.5753 43.4801 37.4241 43.7727 37.3659C44.0886 37.3078 44.3812 37.3892 44.5567 37.6335C44.7322 37.3892 44.9779 37.1333 45.3758 37.0519C45.9023 36.9472 46.347 37.238 46.347 38.0057V39.5995L45.5045 39.7623V38.2035C45.5045 37.9709 45.3875 37.8313 45.1417 37.8778C44.8843 37.9243 44.779 38.1802 44.7322 38.25C44.7322 38.2733 44.7322 38.2966 44.7322 38.3198V39.9135L43.8897 40.0764V38.5176C43.8897 38.2849 43.7727 38.1453 43.5269 38.1919C43.2695 38.2384 43.1642 38.4943 43.1057 38.5874V40.2276L42.2749 40.3905V37.7615H42.2866Z" fill="#3A61AA"/>
<path d="M48.3364 39.3203C47.3652 39.5064 46.8503 38.9597 46.8503 38.1919C46.8503 37.4241 47.3301 36.6796 48.2311 36.5051C48.98 36.3539 49.4715 36.7611 49.4715 37.4707C49.4715 37.6452 49.4481 37.8197 49.4246 37.9244L47.7162 38.2617C47.7865 38.5525 48.0088 38.6572 48.3598 38.5874C48.6055 38.5409 48.8162 38.4013 48.9332 38.2268L49.5183 38.5758C49.2608 38.9364 48.8513 39.2156 48.3364 39.3203ZM47.7396 37.6335L48.6524 37.459C48.6407 37.2845 48.5119 37.1333 48.2311 37.1915C47.9854 37.2264 47.8216 37.366 47.7396 37.6335Z" fill="#3A61AA"/>
<path d="M50.0447 36.2492L50.8755 36.0863V36.2375C51.051 36.063 51.2733 35.9118 51.5776 35.8536C52.1392 35.7489 52.6073 36.0514 52.6073 36.8424V38.3896L51.7648 38.5525V37.0402C51.7648 36.7726 51.6244 36.6214 51.3552 36.6679C51.0627 36.7261 50.934 36.982 50.8755 37.0751V38.7153L50.0447 38.8782V36.2492Z" fill="#3A61AA"/>
<path d="M53.45 36.3423L52.9585 36.4354V35.6792L53.45 35.5862V34.9347L54.2925 34.7719V35.4349L55.0179 35.2953V36.0515L54.2925 36.1911V37.0519C54.2925 37.2613 54.3978 37.3544 54.6201 37.3078C54.819 37.2729 54.936 37.2148 55.0179 37.1682V37.8778C54.8775 37.9709 54.7137 38.0291 54.468 38.0756C53.7425 38.2152 53.45 37.8429 53.45 37.2031V36.3423Z" fill="#3A61AA"/>
<path d="M23.9272 36.6797L25.2962 37.4474C24.6644 38.4013 23.658 39.1342 22.4177 39.3785C20.2529 39.7973 18.7786 38.4479 18.7786 36.5168C18.7786 34.5857 20.2529 32.6663 22.4177 32.2475C23.658 32.0032 24.6644 32.3522 25.2962 33.0502L23.9272 34.3531C23.6112 33.9576 23.0964 33.7249 22.4177 33.8529C21.3295 34.0623 20.5572 35.0394 20.5572 36.1678C20.5572 37.3078 21.3295 37.9709 22.4177 37.7615C23.0847 37.6336 23.6112 37.2031 23.9272 36.6797Z" fill="#3A61AA"/>
<path d="M31.1119 35.0627C31.1119 36.5517 30.0119 37.9011 28.4205 38.2036C26.8058 38.5177 25.7175 37.587 25.7175 36.1096C25.7175 34.6206 26.8175 33.2712 28.4205 32.9688C30.0119 32.6547 31.1119 33.5853 31.1119 35.0627ZM29.5205 35.3768C29.5205 34.6439 29.0407 34.2833 28.4205 34.3996C27.777 34.5276 27.3089 35.0743 27.3089 35.8072C27.3089 36.5284 27.7887 36.9007 28.4205 36.7727C29.0407 36.6564 29.5205 36.0864 29.5205 35.3768Z" fill="#3A61AA"/>
<path d="M32.083 32.4453L33.6276 32.1429V32.4104C33.9435 32.0731 34.3531 31.8055 34.9264 31.7008C35.9679 31.5031 36.8221 32.0614 36.8221 33.5272V36.3772L35.2658 36.6797V33.8994C35.2658 33.4109 35.0084 33.12 34.5052 33.2131C33.9669 33.3178 33.7212 33.7947 33.6276 33.9692V36.9938L32.083 37.2962V32.4453V32.4453Z" fill="#3A61AA"/>
<path d="M38.3666 32.6198L37.4539 32.7943V31.41L38.3666 31.2355V30.014L39.9228 29.7115V30.9214L41.2568 30.6654V32.0498L39.9228 32.3057V33.8878C39.9228 34.2717 40.1218 34.4461 40.5313 34.3647C40.8941 34.2949 41.1281 34.2019 41.2685 34.1204V35.4466C41.0111 35.6094 40.7068 35.7258 40.2505 35.8188C38.9165 36.0748 38.3666 35.3884 38.3666 34.2019V32.6198V32.6198Z" fill="#3A61AA"/>
<path d="M42.228 30.4793L43.7726 30.1769V30.5724C44.0768 30.235 44.4513 29.9442 44.9544 29.8511C45.13 29.8162 45.2821 29.8162 45.3991 29.8279V31.4449C45.2353 31.4332 45.0481 31.4449 44.8023 31.4914C44.2407 31.5961 43.8662 32.0032 43.7726 32.1777V35.0278L42.228 35.3302V30.4793V30.4793Z" fill="#3A61AA"/>
<path d="M45.7502 33.3177C45.7502 32.5616 46.3236 31.8752 47.3884 31.4913L48.7458 30.9911C48.7224 30.6305 48.4299 30.4095 47.9852 30.4909C47.5757 30.5723 47.2363 30.805 47.0491 31.1773L45.9258 30.5491C46.3704 29.8511 47.1193 29.3393 48.032 29.1531C49.5883 28.8507 50.3021 29.6417 50.3021 30.7003V33.7714L48.7458 34.0739V33.7132C48.4767 34.0855 47.9384 34.4228 47.4235 34.5159C46.4406 34.7137 45.7502 34.2716 45.7502 33.3177ZM47.7746 33.2363C48.2543 33.1432 48.5586 32.8408 48.7575 32.5034V32.073L47.8214 32.4103C47.4118 32.5616 47.2831 32.7128 47.2831 32.9455C47.2597 33.1898 47.4703 33.3061 47.7746 33.2363Z" fill="#3A61AA"/>
<path d="M51.8465 30.0023L50.9338 30.1768V28.7925L51.8465 28.618V27.3966L53.4028 27.0941V28.3039L54.7368 28.048V29.4323L53.4028 29.6999V31.282C53.4028 31.6659 53.6018 31.8403 54.0113 31.7589C54.374 31.6891 54.6081 31.5961 54.7485 31.5146V32.8408C54.4911 33.0036 54.1868 33.12 53.7305 33.213C52.3965 33.469 51.8465 32.7826 51.8465 31.5961V30.0023Z" fill="#3A61AA"/>
</g>
<path d="M209.5 38.25L199.527 32.4292L199.473 43.976L209.5 38.25ZM104 37.75L103.995 38.75L106.024 38.7596L106.029 37.7596L106.034 36.7596L104.005 36.75L104 37.75ZM110.087 37.7788L110.082 38.7788L114.139 38.7981L114.144 37.7981L114.149 36.7981L110.091 36.7789L110.087 37.7788ZM118.202 37.8173L118.197 38.8173L122.255 38.8365L122.26 37.8365L122.264 36.8365L118.207 36.8173L118.202 37.8173ZM126.317 37.8558L126.313 38.8558L130.37 38.875L130.375 37.875L130.38 36.875L126.322 36.8558L126.317 37.8558ZM134.433 37.8942L134.428 38.8942L138.486 38.9135L138.49 37.9135L138.495 36.9135L134.437 36.8942L134.433 37.8942ZM142.548 37.9327L142.543 38.9327L146.601 38.9519L146.606 37.9519L146.611 36.9519L142.553 36.9327L142.548 37.9327ZM150.663 37.9712L150.659 38.9711L154.716 38.9904L154.721 37.9904L154.726 36.9904L150.668 36.9712L150.663 37.9712ZM158.779 38.0096L158.774 39.0096L162.832 39.0288L162.837 38.0288L162.841 37.0289L158.784 37.0096L158.779 38.0096ZM166.894 38.0481L166.89 39.0481L170.947 39.0673L170.952 38.0673L170.957 37.0673L166.899 37.0481L166.894 38.0481ZM175.01 38.0865L175.005 39.0865L179.063 39.1058L179.067 38.1058L179.072 37.1058L175.014 37.0865L175.01 38.0865ZM183.125 38.125L183.12 39.125L187.178 39.1442L187.183 38.1442L187.187 37.1442L183.13 37.125L183.125 38.125ZM191.24 38.1635L191.236 39.1635L195.293 39.1827L195.298 38.1827L195.303 37.1827L191.245 37.1635L191.24 38.1635ZM199.356 38.2019L199.351 39.2019L203.409 39.2211L203.413 38.2212L203.418 37.2212L199.361 37.2019L199.356 38.2019Z" fill="#3B69D1"/>
<g filter="url(#filter1_d_5451_3265)">
<mask id="mask0_5451_3265" style="mask-type:alpha" maskUnits="userSpaceOnUse" x="241" y="8" width="61" height="60">
<path fill-rule="evenodd" clip-rule="evenodd" d="M301.5 53.1162C301.485 53.2912 301.465 53.4612 301.45 53.6362C301.33 54.8561 301.305 56.096 301.07 57.2959C300.185 61.8405 297.595 65.0502 293.32 66.8601C291.78 67.51 290.14 67.765 288.48 67.88C287.86 67.925 287.235 67.96 286.615 68C276.535 68 266.46 68 256.38 68C256.11 67.98 255.84 67.955 255.565 67.945C254.24 67.89 252.915 67.785 251.625 67.47C247.325 66.4151 244.3 63.8503 242.605 59.7457C241.98 58.2258 241.73 56.6159 241.615 54.9861C241.57 54.3361 241.54 53.6962 241.5 53.0562C241.5 43.0171 241.5 32.9779 241.5 22.9438C241.515 22.7588 241.53 22.5788 241.55 22.3938C241.67 21.1639 241.695 19.914 241.93 18.7041C242.815 14.1595 245.4 10.9498 249.675 9.13991C251.215 8.48996 252.855 8.23498 254.515 8.11999C255.135 8.07499 255.76 8.04 256.38 8C266.46 8 276.535 8 286.615 8C286.875 8.02 287.135 8.045 287.4 8.055C288.735 8.10499 290.07 8.20998 291.37 8.52996C295.67 9.58987 298.7 12.1497 300.39 16.2543C301.015 17.7742 301.265 19.3841 301.38 21.0139C301.425 21.6389 301.46 22.2588 301.5 22.8838C301.5 32.9629 301.5 43.0371 301.5 53.1162Z" fill="white"/>
</mask>
<g mask="url(#mask0_5451_3265)">
<rect x="241.5" y="8" width="60" height="60" fill="url(#paint0_linear_5451_3265)"/>
<path d="M289.788 28.5109H285.724V40.9466C285.722 41.9878 285.294 42.986 284.532 43.7223C283.77 44.4585 282.737 44.8726 281.659 44.8736H269.553L264.134 49.4552H276.701L286.007 55.8779C286.122 55.9579 286.26 56.0007 286.401 56.0003C286.509 56.0001 286.615 55.9754 286.711 55.9283C286.822 55.8732 286.915 55.7897 286.979 55.6869C287.044 55.5842 287.078 55.4661 287.078 55.3458V49.4552H289.788C290.506 49.4552 291.196 49.1794 291.704 48.6884C292.212 48.1974 292.497 47.5315 292.497 46.8372V31.1289C292.497 30.4346 292.212 29.7687 291.704 29.2777C291.196 28.7867 290.506 28.5109 289.788 28.5109Z" fill="#D3C4E7"/>
<path d="M281.659 20.0001H253.209C252.49 20.0001 251.801 20.276 251.293 20.7669C250.785 21.2579 250.499 21.9238 250.499 22.6182V40.9445C250.499 41.6388 250.785 42.3047 251.293 42.7957C251.801 43.2867 252.49 43.5625 253.209 43.5625H257.273V52.0712C257.273 52.1969 257.311 52.3199 257.381 52.4255C257.452 52.5311 257.552 52.6149 257.671 52.6668C257.758 52.7058 257.854 52.7259 257.95 52.7257C258.114 52.7257 258.273 52.6682 258.396 52.564L269.043 43.5625H281.659C282.377 43.5625 283.067 43.2867 283.575 42.7957C284.083 42.3047 284.368 41.6388 284.368 40.9445V22.6182C284.368 21.9238 284.083 21.2579 283.575 20.7669C283.067 20.276 282.377 20.0001 281.659 20.0001Z" fill="#6517DA"/>
</g>
</g>
<defs>
<filter id="filter0_d_5451_3265" x="0" y="0" width="84" height="84" filterUnits="userSpaceOnUse" color-interpolation-filters="sRGB">
<feFlood flood-opacity="0" result="BackgroundImageFix"/>
<feColorMatrix in="SourceAlpha" type="matrix" values="0 0 0 0 0 0 0 0 0 0 0 0 0 0 0 0 0 0 127 0" result="hardAlpha"/>
<feOffset dy="4"/>
<feGaussianBlur stdDeviation="6"/>
<feComposite in2="hardAlpha" operator="out"/>
<feColorMatrix type="matrix" values="0 0 0 0 0.152941 0 0 0 0 0.286275 0 0 0 0 0.588235 0 0 0 0.12 0"/>
<feBlend mode="normal" in2="BackgroundImageFix" result="effect1_dropShadow_5451_3265"/>
<feBlend mode="normal" in="SourceGraphic" in2="effect1_dropShadow_5451_3265" result="shape"/>
</filter>
<filter id="filter1_d_5451_3265" x="233.5" y="0" width="76" height="76" filterUnits="userSpaceOnUse" color-interpolation-filters="sRGB">
<feFlood flood-opacity="0" result="BackgroundImageFix"/>
<feColorMatrix in="SourceAlpha" type="matrix" values="0 0 0 0 0 0 0 0 0 0 0 0 0 0 0 0 0 0 127 0" result="hardAlpha"/>
<feOffset/>
<feGaussianBlur stdDeviation="4"/>
<feComposite in2="hardAlpha" operator="out"/>
<feColorMatrix type="matrix" values="0 0 0 0 0.0588235 0 0 0 0 0.0784314 0 0 0 0 0.219608 0 0 0 0.16 0"/>
<feBlend mode="normal" in2="BackgroundImageFix" result="effect1_dropShadow_5451_3265"/>
<feBlend mode="normal" in="SourceGraphic" in2="effect1_dropShadow_5451_3265" result="shape"/>
</filter>
<linearGradient id="paint0_linear_5451_3265" x1="271.5" y1="8" x2="271.5" y2="68" gradientUnits="userSpaceOnUse">
<stop offset="0.494792" stop-color="#FEFCFF"/>
<stop offset="1" stop-color="#FCF5FF"/>
</linearGradient>
</defs>
</svg>
