<svg width="262" height="82" viewBox="0 0 262 82" fill="none" xmlns="http://www.w3.org/2000/svg">
<rect x="0.5" y="1.5" width="79" height="79" rx="7.5" fill="white"/>
<rect x="0.5" y="1.5" width="79" height="79" rx="7.5" stroke="#F1F1F1"/>
<path d="M51.9745 48.8561C51.6001 48.9181 51.366 49.1198 51.2412 49.5231L52.6142 49.2749C52.5986 49.0112 52.4113 48.7785 51.9745 48.8561ZM51.9745 48.8561C51.6001 48.9181 51.366 49.1198 51.2412 49.5231L52.6142 49.2749C52.5986 49.0112 52.4113 48.7785 51.9745 48.8561ZM51.9745 48.8561C51.6001 48.9181 51.366 49.1198 51.2412 49.5231L52.6142 49.2749C52.5986 49.0112 52.4113 48.7785 51.9745 48.8561ZM51.9745 48.8561C51.6001 48.9181 51.366 49.1198 51.2412 49.5231L52.6142 49.2749C52.5986 49.0112 52.4113 48.7785 51.9745 48.8561ZM70.2287 41.0853L64.2375 42.1555V24.0082L61.5852 23L6.94758 32.3839L6.66675 32.4304V54.9673H6.68235L6.66675 54.9828L9.28786 56.5804L8.30494 58.8449L8.91341 59L9.92753 56.6889L10.5672 56.5648L9.69351 58.5812L10.302 58.7363L11.3161 56.4252L11.9558 56.3012L11.0665 58.3175L11.6749 58.4726L12.6735 56.1771L13.3131 56.053L12.4394 58.0539L13.0479 58.209L14.0464 55.9134L14.6861 55.7893L13.8124 57.7747L14.4209 57.9298L15.4194 55.6497L16.0591 55.5256L15.201 57.4955L15.8094 57.6506L16.8079 55.3705L17.4476 55.2464L16.5895 57.2163L17.198 57.3714L18.1965 55.1069L18.8362 54.9828L17.9781 56.9836L18.5866 57.1387L19.5695 54.8742L20.2091 54.7501L19.351 56.7044L19.9595 56.8595L20.9424 54.6105L21.5821 54.4864L20.7396 56.4252L21.3481 56.5804L22.331 54.3468L22.9707 54.2227L22.1282 56.1616L22.7366 56.3167L23.7196 54.0832L24.3592 53.9591L23.5167 55.8824L24.1252 56.0375L25.0925 53.8195L25.7322 53.6954L24.8897 55.6187L25.4982 55.7738L26.4655 53.5558L27.1052 53.4317L26.2627 55.3395L26.8711 55.4946L27.8384 53.2921L28.4781 53.168L27.6512 55.0758L28.2597 55.2309L29.227 53.0284L29.8667 52.9044L29.0398 54.7966L29.6483 54.9517L30.6 52.7648L31.2396 52.6407L30.4128 54.533L31.0212 54.6881L31.9729 52.5011L32.6126 52.377L31.7857 54.2538L32.3942 54.4089L33.3459 52.2374L34.1104 52.0978L33.2211 54.0987L33.8296 54.2693L34.8593 51.9582L35.6394 51.8186L34.7345 53.8815L35.3429 54.0366L36.3727 51.679L37.0123 51.5549L36.1074 53.6023L36.7159 53.7574L37.7456 51.4153L38.3853 51.2913L37.496 53.3386L38.1045 53.4938L39.1342 51.1517L39.7739 51.0276L38.8846 53.0595L39.493 53.2146L40.5071 50.888L41.1468 50.7639L40.2575 52.7958L40.866 52.9509L41.8801 50.6243L42.5198 50.5002L41.6305 52.5166L42.2389 52.6717L43.2531 50.3606L43.8927 50.2365L43.019 52.2374L43.6275 52.3925L44.2984 50.857V57.1232L44.2828 57.1542L47.45 58.7518L73.0526 54.3158L73.3334 54.2693V42.3882L70.2287 41.0853ZM66.0162 45.2576C67.1395 45.056 67.8728 45.6609 67.8728 46.7312C67.8728 46.9948 67.8416 47.2585 67.7948 47.3981L65.2361 47.8634C65.3453 48.2977 65.6729 48.4528 66.2034 48.3598C66.5778 48.2977 66.8743 48.0806 67.0615 47.8324L67.9352 48.3598C67.5607 48.9181 66.9367 49.3369 66.1722 49.4765C64.7212 49.7402 63.9411 48.9026 63.9411 47.7548C63.9567 46.6226 64.6744 45.5058 66.0162 45.2576ZM61.6632 46.0487C62.5057 45.8936 63.1922 46.3589 63.1922 47.5532V49.8643L61.9285 50.0969V47.8324C61.9285 47.4291 61.71 47.1965 61.32 47.274C60.8831 47.3516 60.6803 47.7393 60.6023 47.8789V50.3296L59.3542 50.5623V46.6226L60.6023 46.3899V46.6071C60.8832 46.3589 61.2108 46.1417 61.6632 46.0487ZM44.2516 45.7075V47.3826L7.41564 54.1607L7.35323 54.1762V32.9888L60.93 23.7755V42.7449L44.4544 45.6919L44.2516 45.7075ZM56.499 50.0969C56.9515 50.0194 57.1543 49.6782 57.1543 49.2749V47.0414L58.4181 46.8087V48.9647C58.4181 50.1435 57.716 51.0276 56.499 51.2602C55.2665 51.4929 54.58 50.857 54.58 49.6782V47.5222L55.8438 47.2895V49.5231C55.8282 49.9263 56.031 50.1745 56.499 50.0969ZM52.1617 50.9345C52.5362 50.8725 52.8326 50.6553 53.0198 50.4072L53.8935 50.9345C53.5191 51.4929 52.895 51.9117 52.1305 52.0513C50.6795 52.315 49.8995 51.4774 49.8995 50.3296C49.8995 49.1818 50.6171 48.0651 51.9589 47.8324C53.0822 47.6308 53.8311 48.2357 53.8311 49.3059C53.8311 49.5696 53.7843 49.8333 53.7531 49.9729L51.1944 50.4382C51.3036 50.8725 51.6469 51.0431 52.1617 50.9345ZM48.9633 47.0103V51.9737C48.9633 53.2146 48.4017 54.0056 47.1223 54.2383C46.9195 54.2693 46.7479 54.3003 46.6387 54.3003V53.075C46.7167 53.075 46.7947 53.075 46.9039 53.0439C47.372 52.9509 47.5592 52.7027 47.5592 52.2994V47.2585L48.9633 47.0103ZM72.6625 53.7109L47.5124 58.209L45.3125 57.1077L70.0258 52.6872L70.213 52.6562V41.7988L70.2443 41.7833L72.6625 42.7915V53.7109ZM66.0162 46.2813C65.6417 46.3434 65.4077 46.545 65.2829 46.9483L66.6558 46.7001C66.6402 46.452 66.4374 46.2038 66.0162 46.2813ZM51.9745 48.8561C51.6001 48.9181 51.366 49.1198 51.2412 49.5231L52.6142 49.2749C52.5986 49.0112 52.4113 48.7785 51.9745 48.8561ZM51.9745 48.8561C51.6001 48.9181 51.366 49.1198 51.2412 49.5231L52.6142 49.2749C52.5986 49.0112 52.4113 48.7785 51.9745 48.8561ZM51.9745 48.8561C51.6001 48.9181 51.366 49.1198 51.2412 49.5231L52.6142 49.2749C52.5986 49.0112 52.4113 48.7785 51.9745 48.8561Z" fill="#3A61AA"/>
<path d="M11.3318 46.1727C11.7375 46.0952 12.0495 46.1417 12.2991 46.2813V44.42L13.4225 44.2029V49.4299L12.2991 49.6471V49.492C12.0495 49.7246 11.7375 49.8953 11.3318 49.9728C10.2085 50.19 9.55322 49.4455 9.55322 48.4218C9.55322 47.3825 10.2085 46.3899 11.3318 46.1727ZM11.5035 48.8871C11.8623 48.825 12.1119 48.6234 12.3147 48.2977V47.4446C12.1119 47.2119 11.8467 47.1034 11.5035 47.1654C11.0198 47.2585 10.7234 47.6617 10.7234 48.1736C10.7234 48.6854 11.0042 48.9801 11.5035 48.8871Z" fill="#3A61AA"/>
<path d="M13.9373 46.5449L14.6081 44.3114L15.8563 44.0632L14.967 46.3433L13.9373 46.5449Z" fill="#3A61AA"/>
<path d="M16.5117 43.9393L19.5385 43.3499V44.4046L17.7599 44.7458V45.5679L19.2576 45.2732V46.3279L17.7599 46.6226V47.5222L19.5385 47.181V48.2357L16.5117 48.8251V43.9393Z" fill="#3A61AA"/>
<path d="M20.49 44.5287L21.5977 44.3115V44.5132C21.8317 44.2805 22.1282 44.0789 22.5338 44.0013C23.2827 43.8617 23.9068 44.265 23.9068 45.3197V47.3826L22.7835 47.5998V45.5834C22.7835 45.2266 22.5962 45.025 22.2374 45.087C21.8474 45.1646 21.6757 45.5058 21.5977 45.6299V47.8169L20.49 48.034V44.5287V44.5287Z" fill="#3A61AA"/>
<path d="M24.9366 46.9482C24.8117 46.8241 24.7337 46.6535 24.7337 46.4829C24.7337 46.2037 24.8273 45.9555 25.0926 45.7074C24.7805 45.5367 24.6245 45.2265 24.6245 44.8388C24.6245 44.1408 25.155 43.5049 26.0755 43.3187C26.3563 43.2567 26.6216 43.2567 26.8244 43.3187L28.0881 43.0706V44.0012L27.5421 44.1098C27.5421 44.1563 27.5421 44.2183 27.5421 44.2804C27.5421 44.9784 27.0272 45.6143 26.0755 45.8004C26.0131 45.8159 25.9351 45.8314 25.8727 45.8314C25.8259 45.878 25.8103 45.94 25.8103 45.9865C25.8103 46.1106 25.8883 46.1416 25.9975 46.1106L26.8088 45.9555C27.6669 45.7849 28.1817 46.1882 28.1817 46.8551C28.1817 47.6927 27.4953 48.4372 26.3095 48.6699C25.1238 48.9025 24.4685 48.6544 24.4685 47.8788C24.4685 47.5221 24.6401 47.2119 24.9366 46.9482ZM26.3095 47.7858C26.8712 47.6772 27.1052 47.429 27.1052 47.1653C27.1052 46.9637 26.9648 46.8396 26.684 46.9017L25.7167 47.0878C25.5762 47.1964 25.5138 47.336 25.5138 47.4911C25.5138 47.7703 25.7479 47.8943 26.3095 47.7858ZM26.5592 44.451C26.5592 44.1718 26.3563 44.0632 26.0911 44.1098C25.8103 44.1563 25.623 44.3424 25.623 44.6216C25.623 44.9008 25.8103 45.0094 26.0911 44.9628C26.3719 44.9163 26.5592 44.7302 26.5592 44.451Z" fill="#3A61AA"/>
<path d="M28.4314 45.5368C28.4314 44.9939 28.837 44.4976 29.6171 44.2184L30.6001 43.8616C30.5844 43.598 30.366 43.4428 30.054 43.5049C29.7576 43.5669 29.5079 43.7375 29.3831 44.0012L28.5718 43.5514C28.8995 43.0396 29.4299 42.6673 30.0852 42.5432C31.2085 42.3261 31.7234 42.9 31.7234 43.66V45.878L30.6001 46.0952V45.8315C30.3972 46.0952 30.0228 46.3433 29.6483 46.4209C28.9307 46.545 28.4314 46.2192 28.4314 45.5368ZM29.8824 45.4747C30.2256 45.4127 30.444 45.1955 30.5845 44.9474V44.6372L29.898 44.8853C29.6015 44.9939 29.5079 45.1025 29.5079 45.2731C29.5235 45.4437 29.6639 45.5213 29.8824 45.4747Z" fill="#3A61AA"/>
<path d="M32.7532 45.4282C32.6284 45.3041 32.5504 45.1335 32.5504 44.9629C32.5504 44.6837 32.644 44.4355 32.9092 44.1873C32.5972 44.0167 32.4412 43.7065 32.4412 43.3187C32.4412 42.6208 32.9716 41.9848 33.8921 41.7987C34.173 41.7367 34.4382 41.7367 34.641 41.7987L35.9048 41.5505V42.4812L35.3587 42.5897C35.3587 42.6363 35.3587 42.6983 35.3587 42.7604C35.3587 43.4583 34.8439 44.0943 33.8921 44.2804C33.8297 44.2959 33.7517 44.3114 33.6893 44.3114C33.6425 44.3579 33.6269 44.42 33.6269 44.4665C33.6269 44.5906 33.7049 44.6216 33.8141 44.5906L34.6254 44.4355C35.4835 44.2649 35.9984 44.6682 35.9984 45.3351C35.9984 46.1727 35.3119 46.9172 34.1262 47.1498C32.9404 47.3825 32.2852 47.1343 32.2852 46.3588C32.2852 46.0176 32.4568 45.7074 32.7532 45.4282ZM34.1106 46.2657C34.6722 46.1572 34.9063 45.909 34.9063 45.6453C34.9063 45.4437 34.7658 45.3196 34.485 45.3816L33.5177 45.5678C33.3773 45.6763 33.3149 45.8159 33.3149 45.971C33.3305 46.2502 33.5489 46.3743 34.1106 46.2657ZM34.3758 42.931C34.3758 42.6518 34.173 42.5432 33.9077 42.5897C33.6269 42.6363 33.4397 42.8224 33.4397 43.1016C33.4397 43.3808 33.6269 43.4894 33.9077 43.4428C34.173 43.3963 34.3758 43.2257 34.3758 42.931Z" fill="#3A61AA"/>
<path d="M38.1045 44.7612C36.8095 45.0094 36.123 44.2804 36.123 43.2567C36.123 42.233 36.7627 41.2403 37.9641 41.0077C38.9626 40.806 39.6179 41.3489 39.6179 42.295C39.6179 42.5277 39.5867 42.7604 39.5398 42.9L37.262 43.3498C37.3556 43.7375 37.652 43.8771 38.1201 43.7841C38.4477 43.722 38.7286 43.5359 38.8846 43.3032L39.6647 43.7685C39.337 44.2649 38.791 44.6371 38.1045 44.7612ZM37.3088 42.5122L38.5257 42.2795C38.5101 42.0469 38.3385 41.8452 37.9641 41.9228C37.6364 41.9848 37.418 42.1555 37.3088 42.5122Z" fill="#3A61AA"/>
<path d="M40.3825 40.6821L41.4903 40.465V40.6511C41.6931 40.4339 41.9739 40.2323 42.364 40.1547C42.7852 40.0772 43.1753 40.1858 43.4093 40.5115C43.6433 40.1858 43.971 39.8445 44.5014 39.736C45.2035 39.5964 45.7964 39.9841 45.7964 41.0078V43.1328L44.6731 43.3499V41.2715C44.6731 40.9613 44.517 40.7752 44.1894 40.8372C43.8462 40.8993 43.7057 41.2405 43.6433 41.3336C43.6433 41.3646 43.6433 41.3956 43.6433 41.4266V43.5516L42.52 43.7687V41.6903C42.52 41.3801 42.364 41.194 42.0363 41.256C41.6931 41.318 41.5527 41.6593 41.4747 41.7834V43.9703L40.3669 44.1875V40.6821H40.3825Z" fill="#3A61AA"/>
<path d="M48.4487 42.7605C47.1538 43.0087 46.4673 42.2797 46.4673 41.256C46.4673 40.2323 47.107 39.2396 48.3083 39.0069C49.3068 38.8053 49.9621 39.3482 49.9621 40.2943C49.9621 40.527 49.9309 40.7596 49.8997 40.8992L47.6218 41.349C47.7154 41.7368 48.0119 41.8764 48.4799 41.7833C48.8076 41.7213 49.0884 41.5352 49.2444 41.3025L50.0245 41.7678C49.6813 42.2486 49.1352 42.6209 48.4487 42.7605ZM47.653 40.5115L48.87 40.2788C48.8544 40.0461 48.6827 39.8445 48.3083 39.9221C47.9807 39.9686 47.7622 40.1547 47.653 40.5115Z" fill="#3A61AA"/>
<path d="M50.7266 38.6656L51.8343 38.4485V38.6501C52.0683 38.4175 52.3648 38.2158 52.7704 38.1383C53.5193 37.9987 54.1434 38.4019 54.1434 39.4567V41.5196L53.02 41.7367V39.7203C53.02 39.3636 52.8328 39.162 52.474 39.224C52.0839 39.3016 51.9123 39.6428 51.8343 39.7669V41.9539L50.7266 42.171V38.6656Z" fill="#3A61AA"/>
<path d="M55.2666 38.7897L54.6113 38.9138V37.9056L55.2666 37.7815V36.9129L56.3899 36.6958V37.5799L57.3573 37.3938V38.402L56.3899 38.5881V39.7359C56.3899 40.0151 56.5304 40.1391 56.8268 40.0771C57.092 40.0306 57.248 39.953 57.3573 39.891V40.8371C57.17 40.9612 56.9516 41.0388 56.624 41.1008C55.6567 41.2869 55.2666 40.7906 55.2666 39.9375V38.7897Z" fill="#3A61AA"/>
<path d="M15.9031 39.2395L17.7286 40.2632C16.8861 41.535 15.5443 42.5122 13.8905 42.8379C11.0042 43.3963 9.03833 41.5971 9.03833 39.0223C9.03833 36.4476 11.0042 33.8883 13.8905 33.3299C15.5443 33.0042 16.8861 33.4695 17.7286 34.4002L15.9031 36.1374C15.4819 35.61 14.7954 35.2998 13.8905 35.4704C12.4395 35.7496 11.4098 37.0525 11.4098 38.557C11.4098 40.077 12.4395 40.9611 13.8905 40.682C14.7798 40.5113 15.4819 39.9374 15.9031 39.2395Z" fill="#3A61AA"/>
<path d="M25.4827 37.0836C25.4827 39.0689 24.0162 40.8682 21.8943 41.2714C19.7413 41.6902 18.2903 40.4494 18.2903 38.4795C18.2903 36.4942 19.7569 34.695 21.8943 34.2917C24.0162 33.8729 25.4827 35.1137 25.4827 37.0836ZM23.3609 37.5024C23.3609 36.5252 22.7212 36.0444 21.8943 36.1995C21.0362 36.3701 20.4121 37.0991 20.4121 38.0763C20.4121 39.0379 21.0518 39.5343 21.8943 39.3636C22.7212 39.2085 23.3609 38.4485 23.3609 37.5024Z" fill="#3A61AA"/>
<path d="M26.7776 33.5935L28.837 33.1902V33.547C29.2583 33.0972 29.8043 32.7404 30.5688 32.6008C31.9574 32.3372 33.0963 33.0817 33.0963 35.036V38.8361L31.0213 39.2394V35.5323C31.0213 34.8809 30.6781 34.4931 30.0072 34.6172C29.2895 34.7568 28.9618 35.3927 28.837 35.6254V39.6581L26.7776 40.0614V33.5935V33.5935Z" fill="#3A61AA"/>
<path d="M35.1559 33.8264L33.939 34.059V32.2133L35.1559 31.9806V30.352L37.231 29.9487V31.5618L39.0096 31.2206V33.0664L37.231 33.4076V35.517C37.231 36.0289 37.4962 36.2615 38.0423 36.153C38.5259 36.0599 38.8379 35.9358 39.0252 35.8272V37.5954C38.6819 37.8126 38.2763 37.9677 37.6678 38.0918C35.8892 38.433 35.1559 37.5179 35.1559 35.9358V33.8264V33.8264Z" fill="#3A61AA"/>
<path d="M40.3044 30.9724L42.3639 30.5691V31.0964C42.7695 30.6466 43.2688 30.2589 43.9397 30.1348C44.1737 30.0882 44.3765 30.0882 44.5325 30.1038V32.2597C44.3141 32.2442 44.0645 32.2597 43.7368 32.3218C42.988 32.4614 42.4887 33.0042 42.3639 33.2369V37.037L40.3044 37.4403V30.9724V30.9724Z" fill="#3A61AA"/>
<path d="M45.0005 34.7568C45.0005 33.7486 45.765 32.8335 47.1847 32.3216L48.9946 31.6547C48.9634 31.1739 48.5733 30.8792 47.9804 30.9877C47.4344 31.0963 46.9819 31.4065 46.7323 31.9029L45.2345 31.0653C45.8274 30.1346 46.8259 29.4522 48.0428 29.204C50.1179 28.8007 51.0696 29.8555 51.0696 31.2669V35.3617L48.9946 35.765V35.2842C48.6357 35.7805 47.918 36.2303 47.2315 36.3544C45.921 36.6181 45.0005 36.0287 45.0005 34.7568ZM47.6996 34.6482C48.3393 34.5241 48.7449 34.1209 49.0102 33.6711V33.0972L47.762 33.547C47.2159 33.7486 47.0443 33.9502 47.0443 34.2605C47.0131 34.5862 47.294 34.7413 47.6996 34.6482Z" fill="#3A61AA"/>
<path d="M53.1291 30.3364L51.9121 30.569V28.7233L53.1291 28.4906V26.862L55.2041 26.4587V28.0718L56.9827 27.7306V29.5764L55.2041 29.9331V32.0425C55.2041 32.5544 55.4693 32.787 56.0154 32.6785C56.499 32.5854 56.8111 32.4613 56.9983 32.3528V34.121C56.6551 34.3381 56.2494 34.4932 55.6409 34.6173C53.8623 34.9585 53.1291 34.0434 53.1291 32.4613V30.3364Z" fill="#3A61AA"/>
<path d="M165 40.5L154.917 34.872L155.085 46.4178L165 40.5ZM96 41.5L96.0145 42.4999L97.9312 42.4721L97.9167 41.4722L97.9022 40.4723L95.9855 40.5001L96 41.5ZM101.75 41.4167L101.764 42.4166L105.598 42.361L105.583 41.3611L105.569 40.3612L101.736 40.4168L101.75 41.4167ZM109.417 41.3056L109.431 42.3055L113.264 42.2499L113.25 41.25L113.236 40.2501L109.402 40.3057L109.417 41.3056ZM117.083 41.1944L117.098 42.1943L120.931 42.1388L120.917 41.1389L120.902 40.139L117.069 40.1945L117.083 41.1944ZM124.75 41.0833L124.764 42.0832L128.598 42.0277L128.583 41.0278L128.569 40.0279L124.736 40.0834L124.75 41.0833ZM132.417 40.9722L132.431 41.9721L136.264 41.9166L136.25 40.9167L136.236 39.9168L132.402 39.9723L132.417 40.9722ZM140.083 40.8611L140.098 41.861L143.931 41.8055L143.917 40.8056L143.902 39.8057L140.069 39.8612L140.083 40.8611ZM147.75 40.75L147.764 41.7499L151.598 41.6943L151.583 40.6944L151.569 39.6945L147.736 39.7501L147.75 40.75ZM155.417 40.6389L155.431 41.6388L159.264 41.5832L159.25 40.5833L159.236 39.5834L155.402 39.639L155.417 40.6389Z" fill="#3B69D1"/>
<path d="M257 0.5C259.485 0.500001 261.5 2.51472 261.5 5V77C261.5 79.4853 259.485 81.5 257 81.5H185C182.515 81.5 180.5 79.4853 180.5 77V5C180.5 2.51472 182.515 0.5 185 0.5H257Z" fill="white"/>
<path d="M257 0.5C259.485 0.500001 261.5 2.51472 261.5 5V77C261.5 79.4853 259.485 81.5 257 81.5H185C182.515 81.5 180.5 79.4853 180.5 77V5C180.5 2.51472 182.515 0.5 185 0.5H257Z" stroke="#F1F1F1"/>
<path d="M197 66.3333C197 65.597 197.597 65 198.333 65H243.667C244.403 65 245 65.597 245 66.3333V71.6667C245 72.403 244.403 73 243.667 73H198.333C197.597 73 197 72.403 197 71.6667V66.3333Z" fill="#283276"/>
<path d="M199.963 71.3071V66.7634H202.529V67.393H200.713V68.6783H202.265V69.3079H200.713V71.3071H199.963Z" fill="white"/>
<path d="M203.133 71.3071V68.0356H203.811V68.4056C204.041 68.1525 204.33 67.9707 204.738 67.9707C204.843 67.9707 204.942 67.9902 205.028 68.0162V68.6718C204.922 68.6458 204.817 68.6263 204.679 68.6263C204.258 68.6263 203.982 68.847 203.811 69.1261V71.3071H203.133Z" fill="white"/>
<path d="M206.534 71.4045C205.876 71.4045 205.428 71.0345 205.428 70.4568C205.428 69.9635 205.817 69.6065 206.521 69.4896L207.593 69.3144V69.1456C207.593 68.7432 207.29 68.4965 206.863 68.4965C206.501 68.4965 206.218 68.6588 206.027 68.9249L205.521 68.5419C205.817 68.1525 206.29 67.9058 206.882 67.9058C207.777 67.9058 208.271 68.4251 208.271 69.1456V71.3071H207.593V70.9371C207.356 71.2227 206.942 71.4045 206.534 71.4045ZM206.113 70.4308C206.113 70.684 206.317 70.8592 206.659 70.8592C207.073 70.8592 207.396 70.6645 207.593 70.3529V69.7882L206.698 69.9375C206.284 70.0089 206.113 70.1842 206.113 70.4308Z" fill="white"/>
<path d="M209.333 71.3071V68.0356H210.01V68.3537C210.26 68.0941 210.589 67.9058 211.063 67.9058C211.793 67.9058 212.352 68.3926 212.352 69.3403V71.3071H211.668V69.3663C211.668 68.847 211.379 68.5355 210.905 68.5355C210.451 68.5355 210.181 68.8146 210.01 69.1002V71.3071H209.333Z" fill="white"/>
<path d="M214.958 70.8073C215.333 70.8073 215.636 70.6256 215.82 70.3724L216.353 70.7749C216.051 71.1773 215.564 71.4369 214.952 71.4369C213.84 71.4369 213.143 70.6256 213.143 69.6714C213.143 68.7172 213.84 67.9058 214.952 67.9058C215.557 67.9058 216.051 68.1655 216.353 68.5679L215.82 68.9703C215.636 68.7172 215.333 68.5355 214.952 68.5355C214.314 68.5355 213.853 69.0288 213.853 69.6714C213.853 70.3205 214.314 70.8073 214.958 70.8073Z" fill="white"/>
<path d="M219.926 70.7749C219.617 71.1838 219.111 71.4369 218.492 71.4369C217.347 71.4369 216.67 70.6256 216.67 69.6714C216.67 68.6912 217.301 67.9058 218.354 67.9058C219.268 67.9058 219.861 68.5225 219.861 69.3533C219.861 69.5026 219.841 69.6519 219.815 69.7493H217.367C217.413 70.4633 217.854 70.8333 218.492 70.8333C218.893 70.8333 219.229 70.658 219.433 70.3854L219.926 70.7749ZM218.341 68.464C217.847 68.464 217.505 68.7432 217.4 69.2495H219.183C219.17 68.8405 218.874 68.464 218.341 68.464Z" fill="white"/>
<path d="M222.187 67.445V66.7634H225.904V67.445H224.424V71.3071H223.667V67.445H222.187Z" fill="white"/>
<path d="M226.223 71.3071V68.0356H226.901V68.4056C227.131 68.1525 227.42 67.9707 227.828 67.9707C227.933 67.9707 228.032 67.9902 228.118 68.0162V68.6718C228.012 68.6458 227.907 68.6263 227.769 68.6263C227.348 68.6263 227.072 68.847 226.901 69.1261V71.3071H226.223Z" fill="white"/>
<path d="M229.624 71.4045C228.966 71.4045 228.519 71.0345 228.519 70.4568C228.519 69.9635 228.907 69.6065 229.611 69.4896L230.683 69.3144V69.1456C230.683 68.7432 230.38 68.4965 229.953 68.4965C229.591 68.4965 229.308 68.6588 229.117 68.9249L228.611 68.5419C228.907 68.1525 229.38 67.9058 229.972 67.9058C230.867 67.9058 231.361 68.4251 231.361 69.1456V71.3071H230.683V70.9371C230.446 71.2227 230.032 71.4045 229.624 71.4045ZM229.203 70.4308C229.203 70.684 229.407 70.8592 229.749 70.8592C230.163 70.8592 230.486 70.6645 230.683 70.3529V69.7882L229.788 69.9375C229.374 70.0089 229.203 70.1842 229.203 70.4308Z" fill="white"/>
<path d="M231.904 68.0356H232.634L233.608 70.5801L234.575 68.0356H235.312L234.055 71.3071H233.154L231.904 68.0356Z" fill="white"/>
<path d="M236.774 71.4045C236.116 71.4045 235.669 71.0345 235.669 70.4568C235.669 69.9635 236.057 69.6065 236.761 69.4896L237.834 69.3144V69.1456C237.834 68.7432 237.531 68.4965 237.103 68.4965C236.741 68.4965 236.459 68.6588 236.268 68.9249L235.761 68.5419C236.057 68.1525 236.531 67.9058 237.123 67.9058C238.018 67.9058 238.511 68.4251 238.511 69.1456V71.3071H237.834V70.9371C237.597 71.2227 237.182 71.4045 236.774 71.4045ZM236.353 70.4308C236.353 70.684 236.557 70.8592 236.899 70.8592C237.314 70.8592 237.636 70.6645 237.834 70.3529V69.7882L236.939 69.9375C236.524 70.0089 236.353 70.1842 236.353 70.4308Z" fill="white"/>
<path d="M239.915 67.3086C239.665 67.3086 239.455 67.1009 239.455 66.8543C239.455 66.6076 239.665 66.3999 239.915 66.3999C240.165 66.3999 240.376 66.6076 240.376 66.8543C240.376 67.1009 240.165 67.3086 239.915 67.3086ZM239.573 71.3071V68.0356H240.251V71.3071H239.573Z" fill="white"/>
<path d="M241.359 71.3071V66.4388H242.037V71.3071H241.359Z" fill="white"/>
<path d="M240.369 18.6458C235.709 15.0341 230.547 12.0378 225.007 9.78344C222.439 8.73885 219.561 8.73885 216.993 9.78344C211.453 12.0378 206.291 15.0341 201.631 18.6458C199.435 20.3479 197.992 22.8507 197.611 25.6041C197.202 28.5771 197 31.5601 197 34.5319C197 37.5038 197.202 40.4867 197.611 43.4597C197.992 46.2142 199.435 48.717 201.631 50.418C206.291 54.0297 211.453 57.026 216.993 59.2804C219.561 60.325 222.439 60.325 225.007 59.2804C230.547 57.026 235.709 54.0297 240.369 50.418C242.565 48.7159 244.008 46.2131 244.389 43.4597C244.8 40.4867 245.001 37.5038 245 34.5319C245 31.5601 244.798 28.5771 244.389 25.6041C244.008 22.8496 242.565 20.3468 240.369 18.6458Z" fill="#283276"/>
<path d="M216.435 19C216.054 19 215.689 19.1508 215.42 19.4191C215.151 19.6875 215 20.0514 215 20.4309V49.5691C215 49.9487 215.151 50.3125 215.42 50.581C215.689 50.8491 216.054 51 216.435 51C216.815 51 217.18 50.8491 217.449 50.581C217.718 50.3125 217.869 49.9487 217.869 49.5691V35.9277C223.282 36.3517 228.695 29.3574 234.108 29.1911C234.85 29.1743 235.22 28.7421 235.22 28.073C235.22 27.4207 234.849 26.5321 234.108 25.9972C228.695 22.1347 223.282 25.1002 217.869 20.6475V20.4309C217.869 20.0514 217.718 19.6875 217.449 19.4191C217.18 19.1508 216.815 19 216.435 19Z" fill="white"/>
<path d="M201 23C203.209 23 205 21.2091 205 19C205 16.7909 203.209 15 201 15C198.791 15 197 16.7909 197 19C197 21.2091 198.791 23 201 23Z" fill="#FFCC52"/>
</svg>
